<?xml version="1.0" encoding="UTF-8"?><svg id="Layer_1" xmlns="http://www.w3.org/2000/svg" viewBox="0 0 460.73 165.53"><defs><style>.cls-1{fill:#fff;}.cls-2{fill:#eab308;}</style></defs><g><path class="cls-1" d="M139.24,96.19c0,5.59-5.13,7.88-15,7.88-10.62,0-14.82-3.16-14.82-8.04h8.9c0,2.16,2.87,2.76,6.39,2.76s5.38-.47,5.38-1.76c0-1.56-2.44-1.46-9.65-2.49-7.72-1.1-10.44-2.59-10.44-7.25s4.06-7.45,13.82-7.45c10.66,0,13.82,3.56,13.82,7.58h-8.65c0-1.6-2.01-2.29-5.28-2.29-3.45,0-5.24,.46-5.24,1.79,0,1.6,3.12,1.73,7.43,2.13,7.86,.76,13.35,1.26,13.35,7.15Z"/><path class="cls-1" d="M254.1,92.3c0,9.62-8.56,13.1-17.05,13.1s-17.02-3.48-17.02-13.1,8.53-13.06,17.02-13.06,17.05,3.48,17.05,13.06Zm-9.01,0c0-4.56-2.88-7.32-8.04-7.32s-8.04,2.76-8.04,7.32,2.92,7.36,8.04,7.36,8.04-2.76,8.04-7.36Z"/><path class="cls-1" d="M25.01,79.84l-16.5,24.24h9l2.9-4.34h17.25l2.44,4.34h9.44l-15.79-24.24h-8.74Zm-2.01,16.01l6.6-9.88,5.88,9.88h-12.48Z"/><polygon class="cls-1" points="88.98 79.84 74.69 104.07 66.22 104.07 51.84 79.84 60.69 79.84 70.41 97.88 80.16 79.84 88.98 79.84"/><rect class="cls-1" x="92.98" y="79.84" width="9.94" height="24.24"/><rect class="cls-1" x="260.63" y="79.84" width="9.94" height="24.24"/><polygon class="cls-1" points="216.22 79.84 206.22 79.84 195.93 79.84 185.98 79.84 185.98 84.98 195.93 84.98 195.93 104.07 206.22 104.07 206.22 84.98 216.22 84.98 216.22 79.84"/><polygon class="cls-1" points="181.98 84.98 181.98 79.84 161.75 79.84 153.46 79.84 153.46 104.07 161.75 104.07 181.98 104.07 181.98 98.93 161.75 98.93 161.75 93.82 178.15 93.82 178.15 89.94 161.75 89.94 161.75 84.98 181.98 84.98"/><polygon class="cls-1" points="340.23 84.98 340.23 79.84 320 79.84 311.71 79.84 311.71 104.07 320 104.07 340.23 104.07 340.23 98.93 320 98.93 320 93.82 336.4 93.82 336.4 89.94 320 89.94 320 84.98 340.23 84.98"/><polygon class="cls-1" points="286.9 97.88 286.9 79.84 276.96 79.84 276.96 104.07 286.9 104.07 305.25 104.07 305.25 97.88 286.9 97.88"/><polygon class="cls-1" points="174.4 71.76 169.28 77.41 165.22 77.41 168.84 71.76 174.4 71.76"/></g><polygon class="cls-2" points="300.84 162.47 373.1 91.53 398.25 105.03 386.96 79.18 417.87 53.88 378.81 62.12 366.46 36.59 360.46 65.18 331.4 67.88 340.23 73.53 299.16 62.35 351.51 55.65 362.34 3.06 384.1 51.29 452.22 37.53 398.81 80.71 422.1 130.59 374.93 104.07 300.84 162.47"/></svg>